<svg height="1024" width="1024" xmlns="http://www.w3.org/2000/svg">
  <path fill="#fff" d="M512 0C229.2 0 0 229.3 0 512c0 226.3 146.7 418 350.2 485.8 25.6 4.7 35-11 35-24.6 0-12.2-.6-52.6-.8-95.3C242 908.5 212 817.2 212 817.2c-23.4-59-57-75-57-75-46.5-31.6 3.6-31 3.6-31 51.4 3.6 78.4 53 78.4 53 45.8 78 120 55.5 149 42.4 4.7-33 18-55.7 32.6-68.4-113.7-13-233.3-57-233.3-253 0-56 20-101.6 52.7-137.5-5.2-13-22.8-65.3 5-135.8 0 0 43-13.7 141 52.5 40.7-11.4 84.5-17 128-17.2 43.5.2 87.3 6 128.2 17.3 97.8-66 140.8-52.3 140.8-52.3C809 283 791.2 335 786 348c32.8 35.8 52.6 81.4 52.6 137.3 0 196.7-119.7 240-233.8 252.7 18.5 16 34.8 47 34.8 94.8 0 68.4-.7 123.6-.7 140.5 0 13.6 9 29.5 35 24.5C877.3 930 1024 738 1024 512 1024 229.2 794.7 0 512 0z"/>
</svg>
